<?xml version="1.0" encoding="UTF-8" standalone="no"?>
<!-- Created with Inkscape (http://www.inkscape.org/) -->

<svg
   width="78.081375mm"
   height="92.630257mm"
   viewBox="0 0 78.081375 92.630252"
   version="1.1"
   id="svg1"
   inkscape:version="1.4.3 (0d15f75042, 2025-12-25)"
   sodipodi:docname="samsung_galaxy_s7_proxymity_sensor.svg"
   xmlns:inkscape="http://www.inkscape.org/namespaces/inkscape"
   xmlns:sodipodi="http://sodipodi.sourceforge.net/DTD/sodipodi-0.dtd"
   xmlns="http://www.w3.org/2000/svg"
   xmlns:svg="http://www.w3.org/2000/svg">
  <sodipodi:namedview
     id="namedview1"
     pagecolor="#ffffff"
     bordercolor="#000000"
     borderopacity="0.25"
     inkscape:showpageshadow="2"
     inkscape:pageopacity="0.0"
     inkscape:pagecheckerboard="0"
     inkscape:deskcolor="#d1d1d1"
     inkscape:document-units="mm"
     inkscape:zoom="1.4253648"
     inkscape:cx="121.37244"
     inkscape:cy="117.86457"
     inkscape:window-width="1920"
     inkscape:window-height="1008"
     inkscape:window-x="0"
     inkscape:window-y="0"
     inkscape:window-maximized="1"
     inkscape:current-layer="layer1" />
  <defs
     id="defs1">
    <linearGradient
       x1="0"
       y1="0"
       x2="1"
       y2="0"
       gradientUnits="userSpaceOnUse"
       gradientTransform="matrix(-2.2296657,0,0,-2.2296657,73.61696,99.052337)"
       spreadMethod="pad"
       id="linearGradient9">
      <stop
         style="stop-opacity:1;stop-color:#ffffff"
         offset="0"
         id="stop7" />
      <stop
         style="stop-opacity:1;stop-color:#ffffff"
         offset="0.13326862"
         id="stop8" />
      <stop
         style="stop-opacity:1;stop-color:#a7a5a6"
         offset="1"
         id="stop9" />
    </linearGradient>
    <linearGradient
       x1="0"
       y1="0"
       x2="1"
       y2="0"
       gradientUnits="userSpaceOnUse"
       gradientTransform="matrix(6.0735038,0.03781531,-0.03781531,6.0735038,104.82573,106.18592)"
       spreadMethod="pad"
       id="linearGradient11">
      <stop
         style="stop-opacity:1;stop-color:#ffffff"
         offset="0"
         id="stop10" />
      <stop
         style="stop-opacity:1;stop-color:#bdbcbc"
         offset="1"
         id="stop11" />
    </linearGradient>
  </defs>
  <g
     inkscape:label="Layer 1"
     inkscape:groupmode="layer"
     id="layer1"
     transform="translate(-33.351261,-56.134347)">
    <path
       id="path4"
       d="m 111.0407,89.451521 c 0.043,0.01446 0.0727,0.06809 0.12735,0.136525 v 5.35305 c -0.0526,0.104069 -0.0885,0.206727 -0.14111,0.279047 l -0.0138,47.255987 c 0,3.47204 -2.08738,4.53743 -3.02295,5.21512 -0.93486,0.67698 -2.3562,0.97719 -4.33952,0.71402 -6.360582,-1.05269 -27.463042,-7.05943 -29.557836,-7.91245 -2.094794,-0.85267 -3.143603,-2.68358 -3.143603,-5.99334 0,0 -0.0011,-72.186094 -0.0011,-73.791233 0,-2.457097 2.245078,-4.663722 6.036733,-4.262966 14.166849,2.257072 22.148446,4.513791 27.792186,5.917847 5.64268,1.404408 6.25863,5.002741 6.25863,9.768063 l -0.007,17.321036 z"
       style="fill:#ffffff;fill-opacity:1;fill-rule:nonzero;stroke:none;stroke-width:0.352778" />
    <path
       id="path5"
       d="m 100.77293,143.26082 -0.73166,-0.1838 v -0.25999 l -0.20179,0.0208 -0.612069,0.0494 c -0.03986,0.004 -0.06597,0.0339 -0.06597,0.0773 0,0.0406 0.02611,0.0832 0.06526,0.10865 l 0.612775,0.36619 0.167224,0.10124 0.0346,0.0208 V 143.288 l 0.73166,0.18451 c 0.26106,0.0702 0.44097,0.27975 0.4445,0.52211 -0.004,0.2413 -0.18344,0.35913 -0.44591,0.29845 l -1.338091,-0.33902 v 0.0885 c 0,0.001 -0.0035,0.006 -0.0035,0.0169 0,0.0102 0.0042,0.0191 0.0042,0.0205 l -7.05e-4,0.0579 v 0.0272 l 0.213783,0.0543 1.125713,0.28363 c 0.34572,0.0871 0.65334,-0.0868 0.65334,-0.45579 0,-0.36936 -0.30762,-0.69885 -0.65334,-0.78634"
       style="fill:#231f20;fill-opacity:1;fill-rule:nonzero;stroke:none;stroke-width:0.352778" />
    <path
       id="path6"
       d="m 79.620725,137.44412 v 1.00471 c 0,0.0561 -0.04269,0.0914 -0.09631,0.078 l -0.09666,-0.0226 v -1.00613 l -1.665464,-0.4071 v -0.0998 c 0,-0.0564 0.04233,-0.091 0.09666,-0.078 l 1.665464,0.40605 c 0.05362,0.0134 0.09631,0.0681 0.09631,0.12488"
       style="fill:#231f20;fill-opacity:1;fill-rule:nonzero;stroke:none;stroke-width:0.352778" />
    <path
       id="path7"
       d="m 79.052294,138.60719 -1.533878,-0.375 v -0.81562 l 1.533878,0.37465 z m 0.09631,-0.99589 -1.726494,-0.42192 c -0.05362,-0.0138 -0.09666,0.0226 -0.09666,0.078 v 1.01988 c 0,0.0561 0.04304,0.11077 0.09666,0.12453 l 1.726494,0.42157 c 0.05256,0.0127 0.09666,-0.0226 0.09666,-0.079 v -1.01918 c 0,-0.0557 -0.0441,-0.11112 -0.09666,-0.12382"
       style="fill:#231f20;fill-opacity:1;fill-rule:nonzero;stroke:none;stroke-width:0.352778" />
    <path
       id="path9"
       d="m 72.61699,58.657312 c -1.430161,0.755297 -1.218494,2.485672 -1.218494,2.485672 v 0 l -0.01129,73.548516 c 0,2.76543 1.119011,4.24956 2.112786,4.99922 v 0 c 0.0388,0.0296 0.07796,0.0582 0.117122,0.0847 v 0 -81.445799 0 c -0.417689,0.06879 -0.735542,0.188031 -1.000125,0.327731"
       style="fill:url(#linearGradient9);stroke:none;stroke-width:0.352778" />
    <path
       id="path11"
       d="m 103.99481,64.566692 v 83.188168 c 0.88688,0.13371 1.84361,0.0335 2.44016,-0.18556 v 0 c 0.68862,-0.25188 1.20756,-0.66075 1.61396,-1.04916 v 0 c 0.85654,-0.83502 1.68487,-2.19816 1.68487,-4.11656 v 0 -70.976066 c 0,-3.103033 -1.88878,-4.681008 -2.36291,-5.068358 v 0 c -0.17568,-0.143934 -0.50094,-0.375709 -0.93521,-0.639234 v 0 c -0.62759,-0.379941 -1.48237,-0.827616 -2.44052,-1.168752 v 0 z"
       style="fill:url(#linearGradient11);stroke:none;stroke-width:0.352778" />
    <path
       id="path12"
       d="m 71.835874,132.28301 0.0889,-66.947341 c 0.452261,0.372533 1.015647,0.650522 2.139597,0.916517 l 31.744359,6.813902 c 0.80609,0.188383 1.67781,0.284692 2.34808,0.164042 0.0639,-0.01764 0.13159,-0.0247 0.19685,-0.02152 v -0.396875 c 0,-0.28963 -0.30409,-0.364066 -0.54504,-0.297039 -0.67028,0.12065 -1.54199,0.02469 -2.34809,-0.163689 L 73.715474,65.536752 c -1.123597,-0.266347 -1.686278,-0.544336 -2.138539,-0.916164 l -0.08996,66.947342 c 0,0.18662 0.07796,0.42086 0.200025,0.56832 0.03634,0.0543 0.08714,0.11501 0.151341,0.17851 0,-0.0102 -0.0025,-0.0215 -0.0025,-0.0318"
       style="fill:#a7a5a6;fill-opacity:1;fill-rule:nonzero;stroke:none;stroke-width:0.352778" />
    <path
       id="path13"
       d="M 106.53728,141.19961 73.60724,132.8169 c -0.969786,-0.23001 -1.366661,-0.59125 -1.528233,-0.83008 -0.122414,-0.14746 -0.200025,-0.38171 -0.200025,-0.56868 l 0.08819,-66.139479 C 71.69589,65.146722 71.477168,65.004906 71.28314,64.845097 l -0.08996,66.947343 c 0,0.18662 0.07832,0.42086 0.200378,0.56832 0.161925,0.23919 0.559505,0.60008 1.528586,0.83044 l 32.929686,8.38271 c 0.80116,0.18732 1.63654,0.21837 2.21368,0.0501 0.12877,-0.0515 0.22966,-0.12947 0.28046,-0.29492 -0.52987,0.067 -1.17969,0.018 -1.80869,-0.12947"
       style="fill:#a7a5a6;fill-opacity:1;fill-rule:nonzero;stroke:none;stroke-width:0.352778" />
    <path
       id="path14"
       d="m 111.0407,89.451521 c 0.043,0.01446 0.0727,0.06809 0.12735,0.136525 v 5.35305 c -0.0526,0.104069 -0.0885,0.206727 -0.14111,0.279047"
       style="fill:#ffffff;fill-opacity:1;fill-rule:nonzero;stroke:#231f20;stroke-width:0.529167;stroke-linecap:butt;stroke-linejoin:miter;stroke-miterlimit:10;stroke-dasharray:none;stroke-opacity:1" />
    <path
       id="path15"
       d="m 109.33813,146.18055 c 0.48472,-0.79022 0.8382,-1.81081 0.8382,-3.06776 v -0.22895 -71.767695 c 0,-3.015191 -2.01895,-4.816827 -2.50754,-5.215819 -0.49142,-0.402872 -1.88243,-1.310216 -3.8153,-1.880305 -8.904812,-2.934053 -27.798883,-6.218767 -29.070647,-6.318955 -0.953206,-0.07549 -1.598789,0.0187 -2.083506,0.186972"
       style="fill:none;stroke:#231f20;stroke-width:0.176389;stroke-linecap:butt;stroke-linejoin:miter;stroke-miterlimit:10;stroke-dasharray:none;stroke-opacity:1" />
    <path
       id="path16"
       d="m 110.66658,95.212418 c -0.036,-0.02081 -0.0582,-0.0702 -0.0589,-0.140758 v -5.352697 c -0.002,-0.129117 0.0691,-0.280459 0.15875,-0.336197 0.0332,-0.02223 0.0639,-0.02681 0.0907,-0.01835 l 0.1838,0.08784 c 0.0423,0.01376 0.0727,0.06738 0.0741,0.148519 v 5.352697 c 10e-4,0.128764 -0.0695,0.280106 -0.15875,0.335845 -0.0402,0.02646 -0.0765,0.02858 -0.10654,0.01058 l -0.18309,-0.08749"
       style="fill:#ffffff;fill-opacity:1;fill-rule:nonzero;stroke:#231f20;stroke-width:0.176389;stroke-linecap:butt;stroke-linejoin:miter;stroke-miterlimit:10;stroke-dasharray:none;stroke-opacity:1" />
    <path
       id="path17"
       d="m 111.03724,95.220004 c -0.0215,0.02928 -0.0452,0.05327 -0.0706,0.06914 -0.0892,0.0575 -0.16298,-0.0011 -0.16439,-0.129822 v -5.35305 c -0.001,-0.129469 0.0691,-0.280458 0.15734,-0.336902 0.0339,-0.02117 0.0653,-0.02681 0.0914,-0.01799"
       style="fill:none;stroke:#231f20;stroke-width:0.176389;stroke-linecap:butt;stroke-linejoin:miter;stroke-miterlimit:10;stroke-dasharray:none;stroke-opacity:1" />
    <path
       id="path18"
       d="m 84.472831,58.336805 c 0,0.06032 -0.104069,0.108656 -0.231422,0.108656 -0.128411,0 -0.231775,-0.04833 -0.231775,-0.108656 0,-0.06103 0.103364,-0.109714 0.231775,-0.109714 0.127353,0 0.231422,0.04868 0.231422,0.109714 z"
       style="fill:none;stroke:#231f20;stroke-width:0.176389;stroke-linecap:butt;stroke-linejoin:miter;stroke-miterlimit:10;stroke-dasharray:none;stroke-opacity:1" />
    <path
       id="path19"
       d="m 85.060206,58.478232 c -0.199319,0.124178 -0.616656,0.191206 -0.916869,0.146403 l -7.466542,-1.328914 c -0.281869,-0.04233 -0.330552,-0.171803 -0.118533,-0.286103 0.205669,-0.111478 0.592314,-0.170391 0.867128,-0.134055 l 7.44996,1.31445 c 0.291395,0.0388 0.378178,0.167922 0.184856,0.288219 z"
       style="fill:none;stroke:#231f20;stroke-width:0.176389;stroke-linecap:butt;stroke-linejoin:miter;stroke-miterlimit:10;stroke-dasharray:none;stroke-opacity:1" />
    <path
       id="path20"
       d="m 93.771806,60.331869 c 0,0.06914 -0.160867,0.124883 -0.358422,0.124883 -0.198614,0 -0.359128,-0.05574 -0.359128,-0.124883 0,-0.0695 0.160514,-0.125236 0.359128,-0.125236 0.197555,0 0.358422,0.05574 0.358422,0.125236"
       style="fill:#231f20;fill-opacity:1;fill-rule:nonzero;stroke:none;stroke-width:0.352778" />
    <path
       id="path21"
       d="m 74.153729,58.124926 0.168981,-0.450144 c 0,0 0.592313,-1.083381 1.901119,-1.275645"
       style="fill:none;stroke:#231f20;stroke-width:0.176389;stroke-linecap:butt;stroke-linejoin:miter;stroke-miterlimit:10;stroke-dasharray:none;stroke-opacity:1" />
    <path
       id="path22"
       d="m 75.276126,58.185921 0.06315,-0.351367 c 0,0 0.698147,-1.182158 2.007306,-1.374069"
       style="fill:none;stroke:#231f20;stroke-width:0.176389;stroke-linecap:butt;stroke-linejoin:miter;stroke-miterlimit:10;stroke-dasharray:none;stroke-opacity:1" />
    <path
       id="path23"
       d="m 103.57794,64.397244 c 0,0 -0.0684,-0.451908 0.0875,-0.659694 0.15769,-0.208845 1.1056,-1.204736 2.06234,-1.101725"
       style="fill:none;stroke:#231f20;stroke-width:0.176389;stroke-linecap:butt;stroke-linejoin:miter;stroke-miterlimit:10;stroke-dasharray:none;stroke-opacity:1" />
    <path
       id="path24"
       d="m 104.48401,64.725399 c 0,0 -0.0691,-0.451908 0.0875,-0.6604 0.15698,-0.207786 1.1049,-1.204383 2.06163,-1.101019"
       style="fill:none;stroke:#231f20;stroke-width:0.176389;stroke-linecap:butt;stroke-linejoin:miter;stroke-miterlimit:10;stroke-dasharray:none;stroke-opacity:1" />
    <path
       id="path25"
       d="m 71.282577,134.5368 c 0,3.70699 1.99778,5.1241 3.034947,5.55413 6.460066,2.53259 29.882746,7.75088 29.882746,7.75088 1.91946,0.28858 3.07763,-0.51399 3.83999,-1.24177 0.86007,-0.83962 1.69333,-2.20945 1.69333,-4.13879 V 71.427681 c 0,-3.119967 -1.899,-4.706055 -2.37596,-5.095875 -0.48119,-0.394758 -2.08597,-1.449916 -3.9751,-2.007658 -8.699851,-2.866319 -27.160712,-6.075539 -28.403195,-6.173611 -1.242483,-0.09842 -1.949097,0.09807 -2.460978,0.367595 -1.437922,0.75953 -1.224844,2.499077 -1.224844,2.499077 l -0.01094,73.519591"
       style="fill:none;stroke:#231f20;stroke-width:0.176389;stroke-linecap:butt;stroke-linejoin:miter;stroke-miterlimit:10;stroke-dasharray:none;stroke-opacity:1" />
    <path
       id="path26"
       d="m 98.7658,65.7269 c 0.08043,-0.05539 0.172156,-0.08502 0.265289,-0.1016 -0.3556,0.263525 -0.422628,0.858308 -0.140406,1.353608 0.280811,0.490714 0.795514,0.693209 1.171227,0.475897 -0.0529,0.07867 -0.109013,0.156987 -0.189799,0.210256 -0.399344,0.268464 -0.973314,0.05362 -1.277408,-0.483306 -0.308328,-0.535163 -0.229659,-1.18498 0.171097,-1.454855"
       style="fill:#a7a5a6;fill-opacity:1;fill-rule:nonzero;stroke:none;stroke-width:0.352778" />
    <path
       id="path27"
       d="m 98.890895,66.979014 c -0.282575,-0.495653 -0.215194,-1.090083 0.140053,-1.353608 0.360186,-0.06032 0.770466,0.160514 1.013532,0.584552 0.24588,0.429684 0.23424,0.923573 0.0173,1.244953 -0.375351,0.217311 -0.890054,0.01482 -1.170865,-0.475897"
       style="fill:#ffffff;fill-opacity:1;fill-rule:nonzero;stroke:none;stroke-width:0.352778" />
    <path
       id="path28"
       d="m 99.310135,66.70307 c 0.110419,0.192969 0.319969,0.271992 0.464608,0.176036 0.144992,-0.100189 0.174273,-0.337608 0.06244,-0.532694 -0.110772,-0.192264 -0.319969,-0.272698 -0.466019,-0.174978 -0.145345,0.09807 -0.173214,0.335844 -0.06103,0.531636"
       style="fill:#231f20;fill-opacity:1;fill-rule:nonzero;stroke:none;stroke-width:0.352778" />
    <path
       id="path29"
       d="m 98.594596,67.181754 c 0.304094,0.536928 0.878064,0.751769 1.277408,0.483306 0.400406,-0.26917 0.478716,-0.920398 0.172156,-1.455209 -0.306564,-0.535869 -0.879475,-0.751769 -1.278467,-0.482952 -0.400403,0.269875 -0.479425,0.919691 -0.171097,1.454855 z"
       style="fill:none;stroke:#231f20;stroke-width:0.176389;stroke-linecap:butt;stroke-linejoin:miter;stroke-miterlimit:4;stroke-dasharray:none;stroke-opacity:1" />
    <path
       id="path30"
       d="m 79.426097,61.700082 c 0.124178,0.248356 0.378883,0.362656 0.563386,0.256822 0.186267,-0.109714 0.238125,-0.401461 0.113595,-0.651228 -0.124884,-0.248002 -0.376767,-0.364419 -0.566209,-0.255058 -0.186266,0.107245 -0.236714,0.398992 -0.110772,0.649464"
       style="fill:#a7a5a6;fill-opacity:1;fill-rule:nonzero;stroke:none;stroke-width:0.352778" />
    <path
       id="path31"
       d="m 82.837071,62.559308 c 0.149225,0.299861 0.457906,0.439561 0.681919,0.311503 0.225425,-0.132645 0.289278,-0.485422 0.137584,-0.787047 -0.150636,-0.300567 -0.456495,-0.441678 -0.684389,-0.310445 -0.226483,0.130528 -0.287514,0.483306 -0.135114,0.785989 z"
       style="fill:none;stroke:#231f20;stroke-width:0.176389;stroke-linecap:butt;stroke-linejoin:miter;stroke-miterlimit:10;stroke-dasharray:none;stroke-opacity:1" />
    <path
       id="path32"
       d="m 85.677215,63.391793 c 0.05009,0.103364 0.155928,0.152753 0.234244,0.108303 0.0762,-0.04586 0.09843,-0.166864 0.04586,-0.270228 -0.0508,-0.103717 -0.155223,-0.153106 -0.234245,-0.10795 -0.07761,0.04374 -0.09737,0.1651 -0.04586,0.269875"
       style="fill:#231f20;fill-opacity:1;fill-rule:nonzero;stroke:none;stroke-width:0.352778" />
    <path
       id="path33"
       d="m 86.356593,63.55012 c 0.0508,0.103011 0.156633,0.153458 0.233892,0.108303 0.07726,-0.0448 0.09807,-0.166511 0.04621,-0.270228 -0.05186,-0.103364 -0.155223,-0.152753 -0.234245,-0.10795 -0.07761,0.0441 -0.09737,0.164747 -0.04586,0.269875"
       style="fill:#231f20;fill-opacity:1;fill-rule:nonzero;stroke:none;stroke-width:0.352778" />
    <path
       id="path34"
       d="m 87.03562,63.70841 c 0.0508,0.103011 0.156986,0.153458 0.234244,0.108656 0.07726,-0.0448 0.09807,-0.166864 0.04621,-0.270581 -0.05151,-0.103364 -0.155575,-0.152753 -0.234597,-0.10795 -0.07761,0.0441 -0.09737,0.1651 -0.04586,0.269875"
       style="fill:#231f20;fill-opacity:1;fill-rule:nonzero;stroke:none;stroke-width:0.352778" />
    <path
       id="path35"
       d="m 87.715001,63.866702 c 0.05115,0.103011 0.156986,0.153458 0.233892,0.108656 0.07726,-0.0448 0.09843,-0.166864 0.04657,-0.270581 -0.05186,-0.103364 -0.155575,-0.152753 -0.234597,-0.107597 -0.07726,0.04374 -0.09737,0.164747 -0.04586,0.269522"
       style="fill:#231f20;fill-opacity:1;fill-rule:nonzero;stroke:none;stroke-width:0.352778" />
    <path
       id="path36"
       d="m 88.394028,64.024994 c 0.05115,0.103364 0.157339,0.153458 0.234244,0.108656 0.07726,-0.0448 0.09843,-0.166864 0.04657,-0.270581 -0.05186,-0.103364 -0.155928,-0.1524 -0.234597,-0.107597 -0.07726,0.04374 -0.09772,0.164747 -0.04621,0.269522"
       style="fill:#231f20;fill-opacity:1;fill-rule:nonzero;stroke:none;stroke-width:0.352778" />
    <path
       id="path37"
       d="m 89.073406,64.183144 c 0.05115,0.103364 0.157339,0.153106 0.233892,0.108656 0.07761,-0.0448 0.09878,-0.166864 0.04692,-0.270581 -0.05186,-0.103364 -0.155928,-0.1524 -0.23495,-0.107597 -0.07726,0.04374 -0.09772,0.164747 -0.04586,0.269522"
       style="fill:#231f20;fill-opacity:1;fill-rule:nonzero;stroke:none;stroke-width:0.352778" />
    <path
       id="path38"
       d="m 89.752785,64.341436 c 0.05115,0.103364 0.157692,0.153106 0.233892,0.109008 0.07761,-0.0448 0.09913,-0.167216 0.04727,-0.27058 -0.05186,-0.103717 -0.156281,-0.152753 -0.235303,-0.10795 -0.07726,0.04374 -0.09772,0.164747 -0.04586,0.269522"
       style="fill:#231f20;fill-opacity:1;fill-rule:nonzero;stroke:none;stroke-width:0.352778" />
    <path
       id="path39"
       d="m 90.431811,64.499726 c 0.05151,0.103364 0.157692,0.153106 0.233892,0.109008 0.07761,-0.04515 0.09948,-0.167216 0.04763,-0.27058 -0.05221,-0.103717 -0.156634,-0.152753 -0.235303,-0.10795 -0.07726,0.0441 -0.09807,0.164747 -0.04621,0.269522"
       style="fill:#231f20;fill-opacity:1;fill-rule:nonzero;stroke:none;stroke-width:0.352778" />
    <path
       id="path40"
       d="m 91.111156,64.658052 c 0.05151,0.103364 0.158044,0.153106 0.233892,0.109008 0.07761,-0.0448 0.09948,-0.167216 0.04762,-0.27058 -0.05221,-0.103717 -0.156634,-0.1524 -0.235303,-0.107597 -0.07726,0.04374 -0.09807,0.164394 -0.04621,0.269169"
       style="fill:#231f20;fill-opacity:1;fill-rule:nonzero;stroke:none;stroke-width:0.352778" />
    <path
       id="path41"
       d="m 91.790148,64.816344 c 0.05151,0.103717 0.158044,0.152753 0.233892,0.109008 0.07796,-0.0448 0.09984,-0.167216 0.04798,-0.27058 -0.05221,-0.103717 -0.156986,-0.1524 -0.235655,-0.107597 -0.07726,0.04374 -0.09842,0.164747 -0.04621,0.269169"
       style="fill:#231f20;fill-opacity:1;fill-rule:nonzero;stroke:none;stroke-width:0.352778" />
    <path
       id="path42"
       d="m 92.469563,64.974637 c 0.05186,0.103364 0.157692,0.151694 0.233892,0.109008 0.07726,-0.04586 0.09913,-0.166864 0.04798,-0.27058 -0.05292,-0.103364 -0.156986,-0.153106 -0.235655,-0.107597 -0.07761,0.04304 -0.09807,0.164394 -0.04621,0.269169"
       style="fill:#231f20;fill-opacity:1;fill-rule:nonzero;stroke:none;stroke-width:0.352778" />
    <path
       id="path43"
       d="m 85.322004,63.145308 c 0.01376,0.324556 0.264583,0.639939 0.557389,0.700969 l 6.798027,1.580092 c 0.291748,0.06033 0.518584,-0.154869 0.505531,-0.480836 -0.01517,-0.323497 -0.265289,-0.638881 -0.557036,-0.700969 l -6.798028,-1.578681 c -0.292805,-0.06174 -0.519641,0.153811 -0.505883,0.479425 z"
       style="fill:none;stroke:#231f20;stroke-width:0.176389;stroke-linecap:butt;stroke-linejoin:miter;stroke-miterlimit:10;stroke-dasharray:none;stroke-opacity:1" />
    <path
       id="path44"
       d="m 81.365001,62.178449 c 0.149931,0.299156 0.456494,0.438856 0.681919,0.310797 0.225425,-0.132997 0.287867,-0.485422 0.136878,-0.787753 -0.149578,-0.299508 -0.455789,-0.441325 -0.683683,-0.309386 -0.227189,0.130528 -0.287514,0.483306 -0.135114,0.786342 z"
       style="fill:none;stroke:#231f20;stroke-width:0.176389;stroke-linecap:butt;stroke-linejoin:miter;stroke-miterlimit:10;stroke-dasharray:none;stroke-opacity:1" />
    <path
       id="path45"
       d="m 71.37317,64.583969 c 0.454378,0.374297 1.020586,0.653697 2.149828,0.921456 l 31.915102,6.850238 c 0.80962,0.189442 1.68663,0.286103 2.36008,0.164747 0.24271,-0.06738 0.54786,0.0078 0.54786,0.298803 v 68.290017 c 0,0.3757 -0.13088,0.50094 -0.3182,0.57608 -0.58032,0.16934 -1.41993,0.13829 -2.22532,-0.0501 l -32.782583,-8.33967 c -0.97402,-0.23107 -1.373717,-0.59443 -1.535995,-0.83467 -0.122414,-0.14817 -0.201436,-0.38382 -0.201436,-0.5715"
       style="fill:none;stroke:#231f20;stroke-width:0.176389;stroke-linecap:butt;stroke-linejoin:miter;stroke-miterlimit:10;stroke-dasharray:none;stroke-opacity:1" />
    <path
       id="path46"
       d="m 103.09597,147.59304 v 0.70167"
       style="fill:none;stroke:#231f20;stroke-width:0.176389;stroke-linecap:butt;stroke-linejoin:miter;stroke-miterlimit:10;stroke-dasharray:none;stroke-opacity:1" />
    <path
       id="path47"
       d="m 101.96391,147.336 v 0.74859"
       style="fill:none;stroke:#231f20;stroke-width:0.176389;stroke-linecap:butt;stroke-linejoin:miter;stroke-miterlimit:10;stroke-dasharray:none;stroke-opacity:1" />
    <path
       id="path48"
       d="m 74.97951,140.33904 v 0.46355"
       style="fill:none;stroke:#231f20;stroke-width:0.176389;stroke-linecap:butt;stroke-linejoin:miter;stroke-miterlimit:10;stroke-dasharray:none;stroke-opacity:1" />
    <path
       id="path49"
       d="m 75.977201,140.6818 v 0.43815"
       style="fill:none;stroke:#231f20;stroke-width:0.176389;stroke-linecap:butt;stroke-linejoin:miter;stroke-miterlimit:10;stroke-dasharray:none;stroke-opacity:1" />
    <path
       id="path50"
       d="m 93.112429,142.43398 c 0,0.82515 -0.6477,1.32292 -1.43898,1.10666 l -5.65785,-1.54657 c -0.791281,-0.21661 -1.438981,-1.06857 -1.438981,-1.89336 v -0.381 c 0,-0.8248 0.6477,-1.32257 1.438981,-1.10667 l 5.65785,1.54693 c 0.79128,0.21626 1.43898,1.06857 1.43898,1.89336 z"
       style="fill:none;stroke:#231f20;stroke-width:0.176389;stroke-linecap:butt;stroke-linejoin:miter;stroke-miterlimit:10;stroke-dasharray:none;stroke-opacity:1" />
    <path
       id="path51"
       d="m 92.059951,143.29077 c -0.09666,0.002 -0.198614,-0.0113 -0.302331,-0.0399 l -5.657144,-1.54623 C 85.437254,141.523 84.87669,140.7857 84.87669,140.09425 v -0.38029 c 0,-0.5006 0.301978,-0.84244 0.752475,-0.85126 0.09737,-0.002 0.198614,0.0117 0.303036,0.0402 l 5.656792,1.54623 c 0.663575,0.18168 1.223433,0.91863 1.223433,1.61007 v 0.38065 c 0,0.50024 -0.302331,0.84243 -0.752475,0.8509 z"
       style="fill:none;stroke:#231f20;stroke-width:0.176389;stroke-linecap:butt;stroke-linejoin:miter;stroke-miterlimit:10;stroke-dasharray:none;stroke-opacity:1" />
    <path
       id="path52"
       d="m 111.0407,89.451521 c 0.043,0.01446 0.0727,0.06809 0.12735,0.136525 v 5.35305 c -0.0526,0.104069 -0.0885,0.206727 -0.14111,0.279047 l -0.0138,47.255987 c 0,3.47204 -2.08738,4.53743 -3.02295,5.21512 -0.93486,0.67698 -2.3562,0.97719 -4.33952,0.71402 -6.360582,-1.05269 -27.463042,-7.05943 -29.557836,-7.91245 -2.094794,-0.85267 -3.143603,-2.68358 -3.143603,-5.99334 0,0 -0.0011,-72.186094 -0.0011,-73.791233 0,-2.457097 2.245078,-4.663722 6.036733,-4.262966 14.166849,2.257072 22.148446,4.513791 27.792186,5.917847 5.64268,1.404408 6.25863,5.002741 6.25863,9.768063 l -0.007,17.321036 z"
       style="fill:none;stroke:#231f20;stroke-width:0.529167;stroke-linecap:butt;stroke-linejoin:miter;stroke-miterlimit:10;stroke-dasharray:none;stroke-opacity:1" />
    <path
       id="path61"
       d="m 63.906981,74.40989 h 4.78543 c 0.990247,0 2.404534,-0.539397 3.14325,-1.198739 l 10.43058,-9.312627"
       style="fill:none;stroke:#ffffff;stroke-width:1.05833;stroke-linecap:butt;stroke-linejoin:round;stroke-miterlimit:4;stroke-dasharray:none;stroke-opacity:1" />
    <path
       id="path62"
       d="m 83.114426,64.848378 c 0.524228,-0.468136 0.569736,-1.273175 0.1016,-1.797755 -0.468136,-0.524581 -1.273175,-0.570089 -1.798108,-0.101953 -0.524228,0.468136 -0.569736,1.273527 -0.1016,1.797755 0.468136,0.524581 1.273527,0.570442 1.798108,0.101953"
       style="fill:#ffffff;fill-opacity:1;fill-rule:nonzero;stroke:none;stroke-width:0.352778" />
    <path
       id="path63"
       d="m 63.906981,74.40989 h 4.78543 c 0.990247,0 2.404534,-0.539397 3.14325,-1.198739 l 10.43058,-9.312627"
       style="fill:none;stroke:#0b6fae;stroke-width:0.352778;stroke-linecap:butt;stroke-linejoin:round;stroke-miterlimit:4;stroke-dasharray:none;stroke-opacity:1" />
    <path
       id="path64"
       d="m 82.769902,64.462544 c 0.31115,-0.277989 0.338314,-0.756003 0.06032,-1.067506 -0.277989,-0.311502 -0.756356,-0.338313 -1.067506,-0.06032 -0.311149,0.277988 -0.338313,0.756002 -0.06033,1.067505 0.277989,0.31115 0.756003,0.338314 1.067506,0.06032"
       style="fill:#0b6fae;fill-opacity:1;fill-rule:nonzero;stroke:none;stroke-width:0.352778" />
    <text
       xml:space="preserve"
       style="font-size:6.35px;line-height:0.8;font-family:'Libertinus Sans';-inkscape-font-specification:'Libertinus Sans, Normal';text-align:center;letter-spacing:0px;word-spacing:0px;writing-mode:lr-tb;direction:ltr;text-anchor:middle;fill:#000000;stroke-width:0.661458;stroke-linecap:round;stroke-dasharray:2.64583, 1.32292;paint-order:fill markers stroke"
       x="47.76577"
       y="73.86908"
       id="text1"><tspan
         sodipodi:role="line"
         id="tspan1"
         style="font-size:6.35px;stroke-width:0.661458"
         x="47.76577"
         y="73.86908">Sensor de</tspan><tspan
         sodipodi:role="line"
         style="font-size:6.35px;stroke-width:0.661458"
         x="47.76577"
         y="78.949081"
         id="tspan2">proximidad</tspan></text>
  </g>
</svg>
